<svg xmlns="http://www.w3.org/2000/svg" aria-hidden="true"
     width="64" height="64" viewBox="0 0 35 35"
     preserveAspectRatio="xMidYMid meet">

    <g transform="translate(0.000000,40.000000) scale(0.100000,-0.100000)" stroke="none">
        <path d="M133 310 c-85 -51 -81 -179 6 -225 116 -60 239 71 171 182 -37 61
        -116 81 -177 43z m67 -111 l0 -121 -27 7 c-16 3 -41 20 -58 36 -56 55 -34 159
        40 189 44 19 45 16 45 -111z m59 35 c2 -10 8 -23 15 -27 8 -6 8 -10 -1 -14 -7
        -2 -13 -16 -13 -29 0 -14 -6 -24 -14 -24 -12 0 -13 7 -6 31 5 18 5 40 -1 55
        -12 33 -12 36 4 32 6 -3 14 -13 16 -24z"/>
        <path d="M144 249 c-9 -15 -9 -83 0 -98 13 -20 28 -12 20 12 -9 28 -9 36 0 70
        6 27 -6 38 -20 16z"/>
    </g>
</svg>
